<svg viewBox="0 0 384 384" xmlns="http://www.w3.org/2000/svg"><path d="m192 0c-105.871094 0-192 86.128906-192 192 0 105.863281 86.128906 192 192 192s192-86.136719 192-192c0-105.871094-86.128906-192-192-192zm0 352c-88.222656 0-160-71.777344-160-160s71.777344-160 160-160 160 71.777344 160 160-71.777344 160-160 160zm0 0"/><path d="m192 144c12.824219 0 24.871094 4.992188 33.9375 14.054688l11.320312 11.320312 22.628907-22.632812-11.3125-11.308594c-11.269531-11.265625-25.300781-18.746094-40.574219-21.832032v-33.601562h-32v33.601562c-15.273438 3.078126-29.304688 10.558594-40.566406 21.824219-15.113282 15.109375-23.433594 35.207031-23.433594 56.574219s8.320312 41.464844 23.433594 56.566406c11.511718 11.511719 25.695312 18.746094 40.566406 21.761719v33.671875h32v-33.671875c14.871094-3.015625 29.054688-10.25 40.566406-21.761719l11.320313-11.308594-22.628907-22.625-11.3125 11.3125c-18.722656 18.71875-49.167968 18.703126-67.882812 0-9.070312-9.074218-14.0625-21.121093-14.0625-33.945312s4.992188-24.871094 14.0625-33.945312c9.066406-9.0625 21.113281-14.054688 33.9375-14.054688zm0 0"/></svg>