 <svg width="35" height="35" viewBox="0 0 30 30" fill="none" xmlns="http://www.w3.org/2000/svg">
            <path d="M24.6429 18.2143C25.9221 18.2128 27.1724 18.595 28.2322 19.3114C29.1619 16.5116 29.1619 13.4862 28.2322 10.6864C26.9958 11.5192 25.5084 11.8963 24.0246 11.753C22.5408 11.6097 21.153 10.955 20.0988 9.90104C19.0446 8.84706 18.3897 7.45936 18.2462 5.9756C18.1026 4.49184 18.4794 3.00433 19.312 1.76783C16.5121 0.838296 13.4868 0.838296 10.687 1.76783C11.5204 3.00421 11.8978 4.49192 11.7548 5.97607C11.6117 7.46021 10.957 8.84841 9.90273 9.90282C8.84851 10.9572 7.46043 11.6122 5.97631 11.7556C4.49219 11.8989 3.00441 11.5217 1.76788 10.6885C0.838117 13.4884 0.838117 16.5137 1.76788 19.3135C3.00423 18.4807 4.49167 18.1037 5.97546 18.247C7.45925 18.3902 8.84706 19.0449 9.90123 20.0989C10.9554 21.1529 11.6103 22.5406 11.7539 24.0243C11.8974 25.5081 11.5206 26.9956 10.6881 28.2321C13.4879 29.1616 16.5132 29.1616 19.313 28.2321C18.6611 27.2653 18.2845 26.1393 18.2236 24.9748C18.1628 23.8102 18.4201 22.6511 18.9678 21.6217C19.5155 20.5922 20.333 19.7312 21.3328 19.1309C22.3325 18.5307 23.4768 18.2138 24.6429 18.2143ZM15 15.7575L12.5432 18.2143H13.3929V19.2857H11.25C11.1079 19.2857 10.9717 19.2292 10.8712 19.1288C10.7707 19.0283 10.7143 18.892 10.7143 18.75V16.6071H11.7857V17.4568L14.2425 15L11.7857 12.5432V13.3928H10.7143V11.25C10.7143 11.1079 10.7707 10.9716 10.8712 10.8712C10.9717 10.7707 11.1079 10.7143 11.25 10.7143H13.3929V11.7857H12.5432L15 14.2425L17.4568 11.7857H16.6072V10.7143H18.75C18.8921 10.7143 19.0284 10.7707 19.1288 10.8712C19.2293 10.9716 19.2857 11.1079 19.2857 11.25V13.3928H18.2143V12.5432L15.7575 15L18.2143 17.4568V16.6071H19.2857V18.75C19.2857 18.892 19.2293 19.0283 19.1288 19.1288C19.0284 19.2292 18.8921 19.2857 18.75 19.2857H16.6072V18.2143H17.4568L15 15.7575Z" fill="url(#paint0_linear)"/>
            <path d="M5.35714 19.2858C4.2976 19.2858 3.26185 19.6 2.38088 20.1886C1.4999 20.7773 0.81326 21.6139 0.407791 22.5928C0.00232116 23.5717 -0.103768 24.6489 0.102938 25.688C0.309645 26.7272 0.819863 27.6818 1.56907 28.431C2.31828 29.1802 3.27283 29.6904 4.31202 29.8971C5.3512 30.1038 6.42834 29.9977 7.40723 29.5923C8.38612 29.1868 9.22279 28.5002 9.81144 27.6192C10.4001 26.7382 10.7143 25.7025 10.7143 24.6429C10.7127 23.2226 10.1478 21.8609 9.14349 20.8566C8.13917 19.8522 6.77747 19.2873 5.35714 19.2858ZM2.67857 25.1786H1.60715V24.1072H2.67857V25.1786ZM7.5 23.0358H6.42857V22.2724C6.43018 22.1925 6.4006 22.1151 6.34611 22.0566C6.29163 21.9981 6.21651 21.9631 6.13668 21.9591C6.05685 21.955 5.97858 21.9823 5.91847 22.0349C5.85835 22.0876 5.82112 22.1616 5.81464 22.2413L5.62768 24.1072H6.42857V25.1786H5.51786L5.41072 26.2501H7.5V27.3215H4.82143C4.74656 27.3215 4.67252 27.3058 4.60409 27.2754C4.53566 27.245 4.47435 27.2007 4.42413 27.1451C4.37391 27.0896 4.33588 27.0242 4.3125 26.953C4.28912 26.8819 4.28091 26.8067 4.28839 26.7322L4.44643 25.1786H3.75V24.1072H4.55357L4.75072 22.1347C4.79158 21.7872 4.96295 21.4683 5.23012 21.2424C5.49729 21.0165 5.84031 20.9006 6.18973 20.9181C6.53915 20.9356 6.86887 21.0852 7.11214 21.3366C7.35541 21.5881 7.49405 21.9226 7.5 22.2724V23.0358ZM9.10714 25.1786H8.03572V24.1072H9.10714V25.1786Z" fill="url(#paint1_linear)"/>
            <path d="M5.35714 10.7143C6.41668 10.7143 7.45243 10.4001 8.33341 9.81144C9.21439 9.22279 9.90103 8.38612 10.3065 7.40723C10.712 6.42834 10.8181 5.3512 10.6113 4.31202C10.4046 3.27283 9.89442 2.31828 9.14521 1.56907C8.396 0.819863 7.44145 0.309645 6.40227 0.102938C5.36308 -0.103768 4.28594 0.00232116 3.30705 0.407791C2.32816 0.81326 1.49149 1.4999 0.902841 2.38088C0.314191 3.26185 0 4.2976 0 5.35714C0.00155978 6.77747 0.566472 8.13917 1.57079 9.14349C2.57511 10.1478 3.93682 10.7127 5.35714 10.7143ZM8.03571 4.82143H9.10714V5.89286H8.03571V4.82143ZM3.75 6.42857H4.82143V6.50679C4.82157 6.62808 4.86982 6.74436 4.95558 6.83013C5.04135 6.9159 5.15763 6.96415 5.27893 6.96429H5.43536C5.53841 6.96421 5.63841 6.92935 5.71918 6.86535C5.79994 6.80135 5.85673 6.71196 5.88035 6.61165C5.90397 6.51134 5.89304 6.406 5.84932 6.31269C5.8056 6.21937 5.73165 6.14355 5.63946 6.0975L4.59536 5.57518C4.32298 5.43968 4.0974 5.22575 3.94767 4.96093C3.79795 4.6961 3.73093 4.39252 3.75525 4.08928C3.77957 3.78603 3.89411 3.49701 4.08413 3.25943C4.27415 3.02186 4.53094 2.84661 4.82143 2.75625V2.14286H5.89286V2.75625C6.20248 2.85291 6.47326 3.0457 6.66592 3.30665C6.85857 3.5676 6.96308 3.88314 6.96428 4.2075V4.28572H5.89286V4.2075C5.89271 4.08621 5.84447 3.96992 5.7587 3.88416C5.67293 3.79839 5.55665 3.75014 5.43536 3.75H5.27893C5.17588 3.75007 5.07587 3.78493 4.99511 3.84894C4.91434 3.91294 4.85755 4.00233 4.83393 4.10264C4.81031 4.20295 4.82125 4.30829 4.86497 4.4016C4.90869 4.49492 4.98263 4.57074 5.07482 4.61679L6.11893 5.13911C6.39131 5.27461 6.61688 5.48854 6.76661 5.75336C6.91634 6.01819 6.98336 6.32177 6.95904 6.62501C6.93472 6.92826 6.82017 7.21728 6.63016 7.45486C6.44014 7.69243 6.18335 7.86768 5.89286 7.95804V8.57143H4.82143V7.95804C4.5118 7.86138 4.24102 7.66859 4.04837 7.40764C3.85571 7.14669 3.7512 6.83115 3.75 6.50679V6.42857ZM1.60714 4.82143H2.67857V5.89286H1.60714V4.82143Z" fill="url(#paint2_linear)"/>
            <path d="M24.6428 10.7143C25.7024 10.7143 26.7381 10.4001 27.6191 9.81144C28.5001 9.22279 29.1867 8.38612 29.5922 7.40723C29.9977 6.42834 30.1038 5.3512 29.8971 4.31202C29.6903 3.27283 29.1801 2.31828 28.4309 1.56907C27.6817 0.819863 26.7272 0.309645 25.688 0.102938C24.6488 -0.103768 23.5716 0.00232116 22.5928 0.407791C21.6139 0.81326 20.7772 1.4999 20.1885 2.38088C19.5999 3.26185 19.2857 4.2976 19.2857 5.35714C19.2873 6.77747 19.8522 8.13917 20.8565 9.14349C21.8608 10.1478 23.2225 10.7127 24.6428 10.7143ZM27.3214 4.82143H28.3928V5.89286H27.3214V4.82143ZM23.4145 2.29982L24.6428 3.52822L25.8712 2.29982L26.6287 3.05732L25.4003 4.28572H26.25V5.35714H25.1786V5.89286H26.25V6.96429H25.1786V8.03572H24.1071V6.96429H23.0357V5.89286H24.1071V5.35714H23.0357V4.28572H23.8853L22.657 3.05732L23.4145 2.29982ZM20.8928 4.82143H21.9643V5.89286H20.8928V4.82143Z" fill="url(#paint3_linear)"/>
            <path d="M24.6429 19.2858C23.5833 19.2858 22.5476 19.6 21.6666 20.1886C20.7856 20.7773 20.099 21.6139 19.6935 22.5928C19.288 23.5717 19.1819 24.6489 19.3886 25.688C19.5954 26.7272 20.1056 27.6818 20.8548 28.431C21.604 29.1802 22.5585 29.6904 23.5977 29.8971C24.6369 30.1038 25.7141 29.9977 26.6929 29.5923C27.6718 29.1868 28.5085 28.5002 29.0972 27.6192C29.6858 26.7382 30 25.7025 30 24.6429C29.9984 23.2226 29.4335 21.8609 28.4292 20.8566C27.4249 19.8522 26.0632 19.2873 24.6429 19.2858ZM21.9643 25.1786H20.8929V24.1072H21.9643V25.1786ZM26.25 21.9643H25.7143C25.4301 21.9643 25.1576 22.0772 24.9567 22.2782C24.7557 22.4791 24.6429 22.7516 24.6429 23.0358H25.7143V24.1072H24.6429V25.1786H25.7143V26.2501H24.6429C24.6429 26.5342 24.7557 26.8067 24.9567 27.0077C25.1576 27.2086 25.4301 27.3215 25.7143 27.3215H26.25V28.3929H25.7143C25.146 28.3929 24.6009 28.1671 24.1991 27.7653C23.7972 27.3634 23.5714 26.8184 23.5714 26.2501H22.5V25.1786H23.5714V24.1072H22.5V23.0358H23.5714C23.5714 22.4674 23.7972 21.9224 24.1991 21.5205C24.6009 21.1187 25.146 20.8929 25.7143 20.8929H26.25V21.9643ZM28.3928 25.1786H27.3214V24.1072H28.3928V25.1786Z" fill="url(#paint4_linear)"/>
            <defs>
            <linearGradient id="paint0_linear" x1="15" y1="1.07068" x2="15" y2="28.9293" gradientUnits="userSpaceOnUse">
            <stop stopColor="#FF1E41"/>
            <stop offset="1" stopColor="#FF2143"/>
            </linearGradient>
            <linearGradient id="paint1_linear" x1="5.35714" y1="19.2858" x2="5.35714" y2="30.0001" gradientUnits="userSpaceOnUse">
            <stop stopColor="#FF1E41"/>
            <stop offset="1" stopColor="#FF2143"/>
            </linearGradient>
            <linearGradient id="paint2_linear" x1="5.35714" y1="0" x2="5.35714" y2="10.7143" gradientUnits="userSpaceOnUse">
            <stop stopColor="#FF1E41"/>
            <stop offset="1" stopColor="#FF2143"/>
            </linearGradient>
            <linearGradient id="paint3_linear" x1="24.6428" y1="0" x2="24.6428" y2="10.7143" gradientUnits="userSpaceOnUse">
            <stop stopColor="#FF1E41"/>
            <stop offset="1" stopColor="#FF2143"/>
            </linearGradient>
            <linearGradient id="paint4_linear" x1="24.6428" y1="19.2858" x2="24.6428" y2="30.0001" gradientUnits="userSpaceOnUse">
            <stop stopColor="#FF1E41"/>
            <stop offset="1" stopColor="#FF2143"/>
            </linearGradient>
            </defs>
        </svg>