            <svg width="292" height="542" viewBox="0 0 292 542" fill="none" xmlns="http://www.w3.org/2000/svg">
                <rect x="4" width="284" height="528" rx="16" fill="url(#paint0_linear)"/>
                <mask id="mask0" mask-type="alpha" maskUnits="userSpaceOnUse" x="4" y="0" width="284" height="528">
                <rect x="4" width="284" height="528" rx="16" fill="#009CF3"/>
                </mask>
                <g mask="url(#mask0)">
                <g style="mix-blend-mode:soft-light" opacity="0.3">
                <path d="M296.536 0H285.673C294.927 13.5194 308.446 23.8843 324.3 29.1311V19.8929C313.404 15.7566 303.843 8.8359 296.536 0Z" fill="url(#paint1_linear)"/>
                <path d="M280.651 0H270.737C282.052 20.5044 301.285 36.0357 324.3 42.4413V33.5571C306.081 27.8757 290.662 15.8209 280.651 0Z" fill="url(#paint2_linear)"/>
                <path d="M265.796 0H256.477C269.304 27.5217 294.187 48.3319 324.3 55.5905V46.9639C298.854 40.2364 277.69 22.9025 265.796 0Z" fill="url(#paint3_linear)"/>
                <path d="M251.52 0H242.604C256.59 34.5711 287.105 60.7408 324.3 68.6432V60.2419C291.676 52.7418 264.782 30.0324 251.52 0Z" fill="url(#paint4_linear)"/>
                <path d="M237.566 0H228.972C243.875 41.6205 280.024 73.2141 324.3 81.6315V73.4233C284.498 65.3277 251.906 37.1623 237.566 0Z" fill="url(#paint5_linear)"/>
                <path d="M223.854 0H215.549C231.193 48.686 272.99 85.7517 324.316 94.5715V86.5564C277.352 77.9781 239.047 44.3083 223.854 0Z" fill="url(#paint6_linear)"/>
                <path d="M210.286 0H202.223C218.478 55.7354 265.925 98.3055 324.3 107.479V99.6413C270.206 90.6766 226.187 51.4542 210.286 0Z" fill="url(#paint7_linear)"/>
                <path d="M196.847 0H188.993C205.78 62.7848 258.859 110.891 324.284 120.355V112.71C263.06 103.407 213.328 58.6002 196.847 0Z" fill="url(#paint8_linear)"/>
                <path d="M183.489 0H175.86C193.097 69.8342 251.826 123.51 324.3 133.198V125.714C255.93 116.154 200.468 65.7301 183.489 0Z" fill="url(#paint9_linear)"/>
                <path d="M170.227 0H162.727C170.565 34.5228 187.979 66.229 213.634 91.8837C243.875 122.125 282.534 140.924 324.316 146.074V138.735C248.8 128.933 187.625 72.8761 170.227 0Z" fill="url(#paint10_linear)"/>
                <path d="M156.949 0H149.69C157.737 37.9509 176.552 72.8117 204.621 100.881C237.277 133.536 279.106 153.671 324.3 158.885V151.739C281.005 146.557 240.946 127.179 209.626 95.8591C182.909 69.1422 164.883 36.0357 156.949 0Z" fill="url(#paint11_linear)"/>
                <path d="M143.767 0H136.67C144.894 41.363 165.109 79.3944 195.608 109.877C230.678 144.947 275.694 166.418 324.3 171.68V164.695C277.561 159.449 234.267 138.719 200.517 104.969C171.337 75.8053 151.895 39.496 143.767 0Z" fill="url(#paint12_linear)"/>
                <path d="M130.618 0H123.729C132.115 44.775 153.714 85.977 186.627 118.89C224.095 156.358 272.314 179.181 324.316 184.508V177.684C274.117 172.389 227.604 150.291 191.423 114.094C159.781 82.4684 138.907 42.9563 130.618 0Z" fill="url(#paint13_linear)"/>
                <path d="M117.501 0H110.774C119.288 48.1871 142.287 92.5597 177.614 127.887C217.496 167.77 268.886 191.943 324.3 197.303V190.656C270.657 185.313 220.908 161.847 182.282 123.22C148.226 89.1316 125.951 46.4167 117.501 0Z" fill="url(#paint14_linear)"/>
                <path d="M104.4 0H97.8656C106.508 51.5991 130.875 99.1424 168.617 136.884C210.898 179.164 265.49 204.674 324.316 210.066V203.58C267.228 198.204 214.245 173.37 173.188 132.313C136.653 95.8108 112.978 49.877 104.4 0Z" fill="url(#paint15_linear)"/>
                <path d="M91.3311 0H84.9577C93.7131 55.0111 119.448 105.741 159.604 145.897C204.299 190.592 262.078 217.421 324.3 222.861V216.536C263.768 211.112 207.55 184.942 164.062 141.439C125.097 102.474 100.038 53.3212 91.3311 0Z" fill="url(#paint16_linear)"/>
                <path d="M78.2784 0H72.0659C80.934 58.4232 108.037 112.324 150.607 154.894C197.7 201.987 258.682 230.168 324.3 235.64V229.476C260.308 224.02 200.887 196.498 154.937 150.564C113.542 109.153 87.0983 56.7815 78.2784 0Z" fill="url(#paint17_linear)"/>
                <path d="M65.2259 0H59.1904C68.1551 61.8352 96.6263 118.923 141.611 163.891C191.117 213.398 255.27 242.915 324.316 248.403V242.4C256.88 236.912 194.224 208.038 145.843 159.658C101.986 115.816 74.1423 60.2419 65.2259 0Z" fill="url(#paint18_linear)"/>
                <path d="M52.2054 0H46.347C49.9843 26.1536 56.9854 51.6152 67.3342 76.095C82.6723 112.356 104.625 144.931 132.598 172.904C160.57 200.876 193.129 222.829 229.406 238.167C259.712 250.978 291.547 258.704 324.3 261.198V255.356C253.419 249.836 187.528 219.61 136.718 168.8C90.4299 122.496 61.2183 63.6861 52.2054 0Z" fill="url(#paint19_linear)"/>
                <path d="M127.592 177.893C98.9761 149.277 76.5081 115.945 60.816 78.8472C50.097 53.4983 42.8866 27.1032 39.201 0H33.4874C37.2053 27.8757 44.5766 54.9951 55.6013 81.0521C71.5832 118.826 94.4535 152.769 123.601 181.901C152.732 211.032 186.675 233.918 224.449 249.9C256.332 263.387 289.825 271.451 324.3 273.977V268.312C290.582 265.801 257.829 257.883 226.654 244.701C189.54 228.993 156.224 206.525 127.592 177.893Z" fill="url(#paint20_linear)"/>
                <path d="M118.483 187.019C88.6757 157.211 65.2903 122.512 48.9382 83.8687C37.5433 56.9264 29.9306 28.8414 26.1805 0H20.6279C24.4101 29.5818 32.1838 58.3749 43.8685 86.0092C60.4941 125.312 84.2819 160.591 114.588 190.897C144.894 221.203 180.189 244.991 219.476 261.617C252.92 275.764 288.087 284.165 324.284 286.724V281.22C288.827 278.677 254.385 270.421 221.617 256.563C182.99 240.211 148.29 216.81 118.483 187.019Z" fill="url(#paint21_linear)"/>
                <path d="M109.373 196.128C78.391 165.146 54.0561 129.062 37.0602 88.8902C24.9893 60.3384 17.0064 30.5796 13.1759 0H7.80035C11.6469 31.3039 19.7908 61.7548 32.1514 90.9663C49.4208 131.782 74.126 168.429 105.607 199.91C137.088 231.391 173.735 256.096 214.551 273.366C249.573 288.173 286.397 296.928 324.316 299.503V294.16C287.121 291.601 250.989 282.99 216.627 268.457C176.439 251.445 140.355 227.11 109.373 196.128Z" fill="url(#paint22_linear)"/>
                <path d="M100.247 205.238C68.0906 173.081 42.8221 135.613 25.1825 93.8956C12.4356 63.7666 4.08257 32.3178 0.187687 0H-5.02695C-1.11597 33.026 7.39804 65.1346 20.4024 95.9235C38.2996 138.252 63.9382 176.267 96.5779 208.907C129.218 241.547 167.233 267.185 209.562 285.083C246.144 300.566 284.643 309.659 324.283 312.25V307.052C285.335 304.477 247.529 295.512 211.573 280.303C169.889 262.679 132.42 237.411 100.247 205.238Z" fill="url(#paint23_linear)"/>
                <path d="M91.1381 214.363C57.7902 181.015 31.6044 142.163 13.3049 98.9171C-0.117939 67.1947 -8.84118 34.056 -12.7843 0H-17.838C-13.8627 34.732 -4.99458 68.5306 8.68578 100.881C27.2267 144.722 53.7827 184.105 87.5973 217.92C121.412 251.735 160.779 278.275 204.637 296.832C242.797 312.974 282.953 322.422 324.316 325.029V319.992C283.629 317.4 244.133 308.082 206.6 292.212C163.338 273.897 124.502 247.711 91.1381 214.363Z" fill="url(#paint24_linear)"/>
                <path d="M82.0285 223.473C47.4896 188.934 20.3703 148.714 1.42706 103.939C-12.6718 70.6068 -21.7652 35.7943 -25.7727 0H-30.6655C-26.6418 36.4541 -17.4036 71.9104 -3.06333 105.822C16.1214 151.176 43.5947 191.927 78.5682 226.901C113.542 261.874 154.293 289.348 199.647 308.532C239.385 325.335 281.198 335.137 324.284 337.744V332.883C281.858 330.276 240.672 320.603 201.547 304.058C156.788 285.131 116.567 258.012 82.0285 223.473Z" fill="url(#paint25_linear)"/>
                <path d="M72.9029 232.582C37.173 196.868 9.13628 155.264 -10.4508 108.944C-25.2095 74.0349 -34.6731 37.5325 -38.7289 0H-43.4607C-39.3888 38.1763 -29.7964 75.2903 -14.7802 110.779C5.04827 157.662 33.4229 199.749 69.5874 235.914C105.752 272.078 147.839 300.453 194.722 320.281C236.021 337.744 279.508 347.884 324.316 350.523V345.823C280.152 343.2 237.276 333.189 196.557 315.968C150.221 296.349 108.633 268.312 72.9029 232.582Z" fill="url(#paint26_linear)"/>
                <path d="M63.7935 241.708C26.8887 204.803 -2.0815 161.831 -22.3284 113.982C-37.7631 77.463 -47.5969 39.2707 -51.701 0H-56.2557C-52.1355 39.8823 -42.1891 78.6701 -26.4969 115.736C-6.04075 164.132 23.2674 207.587 60.5906 244.911C97.9139 282.234 141.369 311.526 189.765 331.998C232.641 350.137 277.803 360.614 324.316 363.254V358.699C278.414 356.06 233.848 345.695 191.536 327.814C143.671 307.583 100.698 278.613 63.7935 241.708Z" fill="url(#paint27_linear)"/>
                <path d="M54.6839 250.817C16.5881 212.722 -13.3155 168.381 -34.2063 118.987C-50.3169 80.8912 -60.5047 41.0089 -64.6571 0H-64.9468V30.0646C-59.5391 61.1271 -50.6227 91.417 -38.2299 120.693C-17.13 170.602 13.0956 215.425 51.5776 253.924C90.0758 292.422 134.883 322.631 184.792 343.747C229.229 362.546 276.064 373.361 324.3 376.033V371.639C276.66 368.983 230.404 358.281 186.514 339.708C137.12 318.817 92.7636 288.913 54.6839 250.817Z" fill="url(#paint28_linear)"/>
                <path d="M45.5583 259.927C6.28761 220.656 -24.5495 174.916 -46.084 123.993C-53.6324 106.144 -59.9253 87.8925 -64.9468 69.3354V84.5448C-60.6657 98.4505 -55.6764 112.163 -49.9628 125.65C-28.2191 177.072 2.92384 223.264 42.5808 262.921C82.2377 302.578 128.429 333.72 179.851 355.464C225.865 374.923 274.358 386.092 324.3 388.764V384.531C274.922 381.859 226.976 370.818 181.493 351.569C130.57 330.035 84.8451 299.214 45.5583 259.927Z" fill="url(#paint29_linear)"/>
                <path d="M36.4488 269.053C-4.0129 228.591 -35.7674 181.482 -57.9618 129.03C-60.4243 123.204 -62.7419 117.346 -64.9468 111.439V122.689C-63.8846 125.329 -62.8063 127.968 -61.6957 130.608C-39.3082 183.543 -7.24791 231.086 33.5839 271.918C74.4158 312.749 121.959 344.81 174.894 367.197C222.486 387.332 272.636 398.839 324.3 401.511V397.439C273.183 394.751 223.548 383.356 176.471 363.447C124.019 341.269 76.9104 309.498 36.4488 269.053Z" fill="url(#paint30_linear)"/>
                <path d="M27.3393 278.162C-11.4164 239.406 -42.4306 194.712 -64.9468 145.173V154.411C-42.5593 201.343 -12.5108 243.832 24.571 280.914C66.5617 322.905 115.473 355.883 169.937 378.914C219.09 399.708 270.914 411.554 324.3 414.258V410.347C271.445 407.659 220.12 395.91 171.45 375.325C117.469 352.503 68.9758 319.799 27.3393 278.162Z" fill="url(#paint31_linear)"/>
                <path d="M18.2137 287.271C-15.2791 253.778 -43.1548 215.956 -64.9468 174.497V182.415C-43.4928 221.798 -16.5345 257.818 15.5742 289.927C58.7397 333.092 109.003 366.987 164.98 390.662C215.71 412.116 269.192 424.316 324.3 427.02V423.27C269.691 420.566 216.692 408.463 166.428 387.218C110.918 363.72 61.0412 330.099 18.2137 287.271Z" fill="url(#paint32_linear)"/>
                <path d="M9.10415 296.398C-19.7212 267.556 -44.5068 235.625 -64.9468 200.973V207.942C-44.9574 240.872 -21.0409 271.306 6.57731 298.925C50.9178 343.265 102.549 378.077 160.039 402.38C212.33 424.494 267.486 437.032 324.316 439.752V436.163C267.969 433.443 213.28 421.002 161.439 399.081C104.368 374.955 53.1066 340.4 9.10415 296.398Z" fill="url(#paint33_linear)"/>
                <path d="M-0.00536346 305.506C-24.5817 280.93 -46.2772 254.165 -64.9468 225.436V231.665C-46.8083 258.945 -25.9176 284.439 -2.43564 307.937C43.0636 353.436 96.063 389.166 155.066 414.128C208.934 436.918 265.748 449.778 324.3 452.514V449.086C266.214 446.366 209.835 433.587 156.401 410.974C97.8012 386.188 45.1881 350.7 -0.00536346 305.506Z" fill="url(#paint34_linear)"/>
                <path d="M-9.13097 314.616C-29.732 294.015 -48.3695 271.901 -64.9468 248.419V254.036C-48.9328 276.279 -31.0678 297.299 -11.4325 316.934C35.2417 363.608 89.5929 400.255 150.108 425.846C205.538 449.295 264.042 462.509 324.3 465.245V461.978C264.476 459.242 206.407 446.125 151.38 422.836C91.2507 397.407 37.2535 361.001 -9.13097 314.616Z" fill="url(#paint35_linear)"/>
                <path d="M-18.2405 323.741C-35.1076 306.858 -50.6871 289.009 -64.9468 270.227V275.329C-51.2826 293.033 -36.4434 309.916 -20.4293 325.93C27.4197 373.779 83.123 411.344 145.167 437.578C202.174 461.688 262.336 475.239 324.316 477.991V474.885C262.754 472.149 203.011 458.678 146.375 434.729C84.7002 408.64 29.3189 371.301 -18.2405 323.741Z" fill="url(#paint36_linear)"/>
                <path d="M-27.35 332.851C-40.6763 319.525 -53.2139 305.603 -64.9468 291.118V295.785C-53.8094 309.353 -41.9638 322.405 -29.4423 334.943C19.5656 383.951 76.6529 422.433 140.194 449.311C198.762 474.08 260.597 487.986 324.3 490.738V487.793C261 485.041 199.567 471.232 141.353 446.607C78.1497 419.874 21.3843 381.601 -27.35 332.851Z" fill="url(#paint37_linear)"/>
                <path d="M-36.4756 341.961C-46.3898 332.047 -55.8856 321.794 -64.9468 311.236V315.501C-56.4811 325.255 -47.6452 334.734 -38.4391 343.94C11.7437 394.123 70.1829 433.523 135.253 461.044C195.398 486.49 258.891 500.717 324.3 503.486V500.701C259.262 497.949 196.139 483.786 136.331 458.485C71.5992 431.092 13.4658 391.902 -36.4756 341.961Z" fill="url(#paint38_linear)"/>
                <path d="M-45.5851 351.087C-52.2322 344.44 -58.6861 337.648 -64.9468 330.727V334.622C-59.2655 340.834 -53.4231 346.95 -47.436 352.937C3.92171 404.295 63.7129 444.612 130.296 472.761C192.019 498.867 257.169 513.432 324.3 516.201V513.577C257.523 510.809 192.711 496.308 131.31 470.347C65.0488 442.327 5.53116 402.203 -45.5851 351.087Z" fill="url(#paint39_linear)"/>
                <path d="M-54.6946 360.196C-58.1549 356.735 -61.567 353.227 -64.9468 349.686V353.259C-62.1464 356.188 -59.3137 359.085 -56.4489 361.95C-3.93243 414.467 57.2268 455.701 125.339 484.51C188.623 511.275 255.447 526.195 324.3 528.963V526.501C255.785 523.732 189.283 508.877 126.288 482.241C58.4983 453.544 -2.40345 412.487 -54.6946 360.196Z" fill="url(#paint40_linear)"/>
                <path d="M-63.8202 369.305C-64.2065 368.919 -64.5767 368.533 -64.9468 368.163V371.43C-11.3681 424.88 50.9821 466.87 120.382 496.227C185.243 523.652 253.725 538.91 324.3 541.694V539.392C254.031 536.608 185.854 521.415 121.283 494.102C51.9317 464.778 -10.3381 422.787 -63.8202 369.305Z" fill="url(#paint41_linear)"/>
                <path d="M-64.9468 386.253V389.231C-12.2533 439.687 48.3587 479.586 115.425 507.96C150.543 522.816 186.707 534.162 223.677 541.984H234.508C194.047 534.178 154.534 522.172 116.262 505.981C48.8094 477.461 -12.0924 437.193 -64.9468 386.253Z" fill="url(#paint42_linear)"/>
                <path d="M-64.9468 403.989V406.693C-13.219 454.333 45.687 492.283 110.468 519.692C130.763 528.271 151.38 535.707 172.319 541.999H179.352C156.273 535.336 133.547 527.305 111.24 517.874C46.1055 490.304 -13.058 452.047 -64.9468 403.989Z" fill="url(#paint43_linear)"/>
                <path d="M-64.9468 421.403V423.866C-14.249 468.85 42.951 504.95 105.51 531.426C114.346 535.16 123.263 538.684 132.227 542H137.555C127.029 538.201 116.583 534.13 106.235 529.752C43.3372 503.148 -14.0881 466.774 -64.9468 421.403Z" fill="url(#paint44_linear)"/>
                <path d="M-64.9468 438.544V440.733C-16.0677 482.595 38.5089 516.555 97.8656 541.984H102.115C101.809 541.855 101.519 541.743 101.213 541.614C40.5207 515.943 -15.1825 481.372 -64.9468 438.544Z" fill="url(#paint45_linear)"/>
                <path d="M-64.9468 457.391C-24.4852 490.9 19.6783 519.21 67.0606 541.984H70.5853C21.851 518.856 -23.5034 489.886 -64.9468 455.427V457.391Z" fill="url(#paint46_linear)"/>
                <path d="M-64.9468 473.824C-32.5324 499.816 2.11912 522.59 38.8147 542H41.6956C3.93781 522.204 -31.6955 498.851 -64.9468 472.102V473.824Z" fill="url(#paint47_linear)"/>
                <path d="M-64.9468 490.03C-40.3544 509.151 -14.5387 526.501 12.4357 541.984H14.8338C-13.0098 526.114 -39.6301 508.266 -64.9468 488.534V490.03Z" fill="url(#paint48_linear)"/>
                </g>
                </g>
                <defs>
                <linearGradient id="paint0_linear" x1="80.5" y1="528" x2="80.5" y2="0" gradientUnits="userSpaceOnUse">
                <stop stopColor="#FF5670"/>
                <stop offset="1" stopColor="#FF2E4E"/>
                </linearGradient>
                <linearGradient id="paint1_linear" x1="-63.3272" y1="538.713" x2="298.22" y2="24.203" gradientUnits="userSpaceOnUse">
                <stop stopColor="#FB0008"/>
                <stop offset="1" stopColor="#FC4EF3"/>
                </linearGradient>
                <linearGradient id="paint2_linear" x1="-65.1951" y1="537.401" x2="296.353" y2="22.8906" gradientUnits="userSpaceOnUse">
                <stop stopColor="#FB0008"/>
                <stop offset="1" stopColor="#FC4EF3"/>
                </linearGradient>
                <linearGradient id="paint3_linear" x1="-66.8773" y1="536.218" x2="294.67" y2="21.7072" gradientUnits="userSpaceOnUse">
                <stop stopColor="#FB0008"/>
                <stop offset="1" stopColor="#FC4EF3"/>
                </linearGradient>
                <linearGradient id="paint4_linear" x1="-68.4519" y1="535.111" x2="293.096" y2="20.6003" gradientUnits="userSpaceOnUse">
                <stop stopColor="#FB0008"/>
                <stop offset="1" stopColor="#FC4EF3"/>
                </linearGradient>
                <linearGradient id="paint5_linear" x1="-69.9594" y1="534.058" x2="291.589" y2="19.5455" gradientUnits="userSpaceOnUse">
                <stop stopColor="#FB0008"/>
                <stop offset="1" stopColor="#FC4EF3"/>
                </linearGradient>
                <linearGradient id="paint6_linear" x1="-71.4125" y1="533.031" x2="290.136" y2="18.5196" gradientUnits="userSpaceOnUse">
                <stop stopColor="#FB0008"/>
                <stop offset="1" stopColor="#FC4EF3"/>
                </linearGradient>
                <linearGradient id="paint7_linear" x1="-72.8342" y1="532.032" x2="288.713" y2="17.5224" gradientUnits="userSpaceOnUse">
                <stop stopColor="#FB0008"/>
                <stop offset="1" stopColor="#FC4EF3"/>
                </linearGradient>
                <linearGradient id="paint8_linear" x1="-74.2309" y1="531.05" x2="287.316" y2="16.5412" gradientUnits="userSpaceOnUse">
                <stop stopColor="#FB0008"/>
                <stop offset="1" stopColor="#FC4EF3"/>
                </linearGradient>
                <linearGradient id="paint9_linear" x1="-75.6065" y1="530.083" x2="285.94" y2="15.5742" gradientUnits="userSpaceOnUse">
                <stop stopColor="#FB0008"/>
                <stop offset="1" stopColor="#FC4EF3"/>
                </linearGradient>
                <linearGradient id="paint10_linear" x1="-76.9812" y1="529.119" x2="284.567" y2="14.6086" gradientUnits="userSpaceOnUse">
                <stop stopColor="#FB0008"/>
                <stop offset="1" stopColor="#FC4EF3"/>
                </linearGradient>
                <linearGradient id="paint11_linear" x1="-78.3293" y1="528.173" x2="283.218" y2="13.6635" gradientUnits="userSpaceOnUse">
                <stop stopColor="#FB0008"/>
                <stop offset="1" stopColor="#FC4EF3"/>
                </linearGradient>
                <linearGradient id="paint12_linear" x1="-79.6725" y1="527.228" x2="281.875" y2="12.7174" gradientUnits="userSpaceOnUse">
                <stop stopColor="#FB0008"/>
                <stop offset="1" stopColor="#FC4EF3"/>
                </linearGradient>
                <linearGradient id="paint13_linear" x1="-80.9953" y1="526.299" x2="280.553" y2="11.788" gradientUnits="userSpaceOnUse">
                <stop stopColor="#FB0008"/>
                <stop offset="1" stopColor="#FC4EF3"/>
                </linearGradient>
                <linearGradient id="paint14_linear" x1="-82.3188" y1="525.368" x2="279.229" y2="10.8568" gradientUnits="userSpaceOnUse">
                <stop stopColor="#FB0008"/>
                <stop offset="1" stopColor="#FC4EF3"/>
                </linearGradient>
                <linearGradient id="paint15_linear" x1="-83.6371" y1="524.442" x2="277.911" y2="9.93066" gradientUnits="userSpaceOnUse">
                <stop stopColor="#FB0008"/>
                <stop offset="1" stopColor="#FC4EF3"/>
                </linearGradient>
                <linearGradient id="paint16_linear" x1="-84.9482" y1="523.52" x2="276.6" y2="9.00952" gradientUnits="userSpaceOnUse">
                <stop stopColor="#FB0008"/>
                <stop offset="1" stopColor="#FC4EF3"/>
                </linearGradient>
                <linearGradient id="paint17_linear" x1="-86.2593" y1="522.599" x2="275.288" y2="8.08932" gradientUnits="userSpaceOnUse">
                <stop stopColor="#FB0008"/>
                <stop offset="1" stopColor="#FC4EF3"/>
                </linearGradient>
                <linearGradient id="paint18_linear" x1="-87.5631" y1="521.683" x2="273.985" y2="7.17173" gradientUnits="userSpaceOnUse">
                <stop stopColor="#FB0008"/>
                <stop offset="1" stopColor="#FC4EF3"/>
                </linearGradient>
                <linearGradient id="paint19_linear" x1="-88.8559" y1="520.775" x2="272.692" y2="6.26392" gradientUnits="userSpaceOnUse">
                <stop stopColor="#FB0008"/>
                <stop offset="1" stopColor="#FC4EF3"/>
                </linearGradient>
                <linearGradient id="paint20_linear" x1="-90.1538" y1="519.863" x2="271.394" y2="5.35243" gradientUnits="userSpaceOnUse">
                <stop stopColor="#FB0008"/>
                <stop offset="1" stopColor="#FC4EF3"/>
                </linearGradient>
                <linearGradient id="paint21_linear" x1="-91.4557" y1="518.948" x2="270.092" y2="4.43657" gradientUnits="userSpaceOnUse">
                <stop stopColor="#FB0008"/>
                <stop offset="1" stopColor="#FC4EF3"/>
                </linearGradient>
                <linearGradient id="paint22_linear" x1="-92.7504" y1="518.038" x2="268.798" y2="3.52679" gradientUnits="userSpaceOnUse">
                <stop stopColor="#FB0008"/>
                <stop offset="1" stopColor="#FC4EF3"/>
                </linearGradient>
                <linearGradient id="paint23_linear" x1="-94.0407" y1="517.132" x2="267.507" y2="2.6208" gradientUnits="userSpaceOnUse">
                <stop stopColor="#FB0008"/>
                <stop offset="1" stopColor="#FC4EF3"/>
                </linearGradient>
                <linearGradient id="paint24_linear" x1="-95.3302" y1="516.224" x2="266.218" y2="1.71358" gradientUnits="userSpaceOnUse">
                <stop stopColor="#FB0008"/>
                <stop offset="1" stopColor="#FC4EF3"/>
                </linearGradient>
                <linearGradient id="paint25_linear" x1="-96.6193" y1="515.319" x2="264.929" y2="0.808002" gradientUnits="userSpaceOnUse">
                <stop stopColor="#FB0008"/>
                <stop offset="1" stopColor="#FC4EF3"/>
                </linearGradient>
                <linearGradient id="paint26_linear" x1="-97.9056" y1="514.416" x2="263.642" y2="-0.0950849" gradientUnits="userSpaceOnUse">
                <stop stopColor="#FB0008"/>
                <stop offset="1" stopColor="#FC4EF3"/>
                </linearGradient>
                <linearGradient id="paint27_linear" x1="-99.1914" y1="513.511" x2="262.357" y2="-0.999842" gradientUnits="userSpaceOnUse">
                <stop stopColor="#FB0008"/>
                <stop offset="1" stopColor="#FC4EF3"/>
                </linearGradient>
                <linearGradient id="paint28_linear" x1="-99.0998" y1="513.576" x2="262.448" y2="-0.934602" gradientUnits="userSpaceOnUse">
                <stop stopColor="#FB0008"/>
                <stop offset="1" stopColor="#FC4EF3"/>
                </linearGradient>
                <linearGradient id="paint29_linear" x1="-79.7928" y1="527.144" x2="281.756" y2="12.6326" gradientUnits="userSpaceOnUse">
                <stop stopColor="#FB0008"/>
                <stop offset="1" stopColor="#FC4EF3"/>
                </linearGradient>
                <linearGradient id="paint30_linear" x1="-66.8901" y1="536.21" x2="294.658" y2="21.6995" gradientUnits="userSpaceOnUse">
                <stop stopColor="#FB0008"/>
                <stop offset="1" stopColor="#FC4EF3"/>
                </linearGradient>
                <linearGradient id="paint31_linear" x1="-55.9569" y1="543.893" x2="305.591" y2="29.3823" gradientUnits="userSpaceOnUse">
                <stop stopColor="#FB0008"/>
                <stop offset="1" stopColor="#FC4EF3"/>
                </linearGradient>
                <linearGradient id="paint32_linear" x1="-46.0614" y1="550.846" x2="315.487" y2="36.3351" gradientUnits="userSpaceOnUse">
                <stop stopColor="#FB0008"/>
                <stop offset="1" stopColor="#FC4EF3"/>
                </linearGradient>
                <linearGradient id="paint33_linear" x1="-36.8364" y1="557.329" x2="324.711" y2="42.8185" gradientUnits="userSpaceOnUse">
                <stop stopColor="#FB0008"/>
                <stop offset="1" stopColor="#FC4EF3"/>
                </linearGradient>
                <linearGradient id="paint34_linear" x1="-28.0855" y1="563.477" x2="333.462" y2="48.9673" gradientUnits="userSpaceOnUse">
                <stop stopColor="#FB0008"/>
                <stop offset="1" stopColor="#FC4EF3"/>
                </linearGradient>
                <linearGradient id="paint35_linear" x1="-19.6825" y1="569.382" x2="341.865" y2="54.8729" gradientUnits="userSpaceOnUse">
                <stop stopColor="#FB0008"/>
                <stop offset="1" stopColor="#FC4EF3"/>
                </linearGradient>
                <linearGradient id="paint36_linear" x1="-11.5547" y1="575.094" x2="349.993" y2="60.5831" gradientUnits="userSpaceOnUse">
                <stop stopColor="#FB0008"/>
                <stop offset="1" stopColor="#FC4EF3"/>
                </linearGradient>
                <linearGradient id="paint37_linear" x1="-3.64434" y1="580.652" x2="357.904" y2="66.1414" gradientUnits="userSpaceOnUse">
                <stop stopColor="#FB0008"/>
                <stop offset="1" stopColor="#FC4EF3"/>
                </linearGradient>
                <linearGradient id="paint38_linear" x1="4.08524" y1="586.085" x2="365.633" y2="71.5744" gradientUnits="userSpaceOnUse">
                <stop stopColor="#FB0008"/>
                <stop offset="1" stopColor="#FC4EF3"/>
                </linearGradient>
                <linearGradient id="paint39_linear" x1="11.6679" y1="591.413" x2="373.215" y2="76.9031" gradientUnits="userSpaceOnUse">
                <stop stopColor="#FB0008"/>
                <stop offset="1" stopColor="#FC4EF3"/>
                </linearGradient>
                <linearGradient id="paint40_linear" x1="19.1225" y1="596.651" x2="380.67" y2="82.1408" gradientUnits="userSpaceOnUse">
                <stop stopColor="#FB0008"/>
                <stop offset="1" stopColor="#FC4EF3"/>
                </linearGradient>
                <linearGradient id="paint41_linear" x1="26.4676" y1="601.812" x2="388.015" y2="87.3021" gradientUnits="userSpaceOnUse">
                <stop stopColor="#FB0008"/>
                <stop offset="1" stopColor="#FC4EF3"/>
                </linearGradient>
                <linearGradient id="paint42_linear" x1="0.735317" y1="583.731" x2="362.284" y2="69.2185" gradientUnits="userSpaceOnUse">
                <stop stopColor="#FB0008"/>
                <stop offset="1" stopColor="#FC4EF3"/>
                </linearGradient>
                <linearGradient id="paint43_linear" x1="-13.5568" y1="573.687" x2="347.99" y2="59.1772" gradientUnits="userSpaceOnUse">
                <stop stopColor="#FB0008"/>
                <stop offset="1" stopColor="#FC4EF3"/>
                </linearGradient>
                <linearGradient id="paint44_linear" x1="-23.4496" y1="566.735" x2="338.098" y2="52.2257" gradientUnits="userSpaceOnUse">
                <stop stopColor="#FB0008"/>
                <stop offset="1" stopColor="#FC4EF3"/>
                </linearGradient>
                <linearGradient id="paint45_linear" x1="-31.282" y1="561.232" x2="330.265" y2="46.722" gradientUnits="userSpaceOnUse">
                <stop stopColor="#FB0008"/>
                <stop offset="1" stopColor="#FC4EF3"/>
                </linearGradient>
                <linearGradient id="paint46_linear" x1="-37.8667" y1="556.605" x2="323.682" y2="42.0929" gradientUnits="userSpaceOnUse">
                <stop stopColor="#FB0008"/>
                <stop offset="1" stopColor="#FC4EF3"/>
                </linearGradient>
                <linearGradient id="paint47_linear" x1="-43.6127" y1="552.567" x2="317.934" y2="38.0578" gradientUnits="userSpaceOnUse">
                <stop stopColor="#FB0008"/>
                <stop offset="1" stopColor="#FC4EF3"/>
                </linearGradient>
                <linearGradient id="paint48_linear" x1="-48.7377" y1="548.966" x2="312.811" y2="34.4529" gradientUnits="userSpaceOnUse">
                <stop stopColor="#FB0008"/>
                <stop offset="1" stopColor="#FC4EF3"/>
                </linearGradient>
                </defs>
            </svg>